<svg xmlns="http://www.w3.org/2000/svg" width="66" height="46" viewBox="0 0 66 46">
  <g id="alelo" transform="translate(211.5 -38.5)">
    <g id="Discover" transform="translate(-211.5 38.5)">
      <rect id="Rectangle_Copy_16" data-name="Rectangle Copy 16" width="66" height="46" rx="3" fill="#007858"/>
    </g>
    <g id="alelo-1" transform="translate(-209.952 41.285)">
      <g id="Grupo_8" data-name="Grupo 8" transform="translate(21.159 12.076)">
        <path id="Caminho_10" data-name="Caminho 10" d="M85.387,52.707a3.62,3.62,0,0,1-4.48.476L79.547,55.34a6.186,6.186,0,0,0,7.634-.81Zm-2.449-8.79a6.189,6.189,0,0,0-5.285,9.566l11.21-4.792A6.192,6.192,0,0,0,82.938,43.916Zm-3.714,6.571a3.638,3.638,0,0,1,6.4-2.736ZM92.383,41.13V53.077l2.073.86-.978,2.349-2.055-.851a2.264,2.264,0,0,1-1.01-.851,2.642,2.642,0,0,1-.4-1.468V41.13Zm-18.051,0V53.077l2.055.86-.978,2.349-2.055-.851a2.264,2.264,0,0,1-.978-.837,2.642,2.642,0,0,1-.4-1.468v-12Z" transform="translate(-71.977 -41.13)" fill="#fff"/>
      </g>
      <path id="Caminho_11" data-name="Caminho 11" d="M162.375,53.528a3.641,3.641,0,0,1,1.7,4.862l2.293,1.1a6.189,6.189,0,0,0-9.745-7.255l1.715,1.882A3.638,3.638,0,0,1,162.375,53.528Z" transform="translate(-110.61 -35.762)" fill="#c7d540"/>
      <path id="Caminho_12" data-name="Caminho 12" d="M64.123,60.141a3.647,3.647,0,0,1-1.706-4.862l-2.293-1.1a6.189,6.189,0,0,0,9.733,7.255l-1.715-1.879A3.644,3.644,0,0,1,64.123,60.141Zm-29.792.173V56.856a6.165,6.165,0,1,0-3.411,5.516l-.993-2.319a3.651,3.651,0,1,1-2.593-6.75,3.6,3.6,0,0,1,.822-.1,3.655,3.655,0,0,1,3.658,3.649v3.429a2.642,2.642,0,0,0,.4,1.468,2.3,2.3,0,0,0,1.01.851l1.157.458.981-2.349Z" transform="translate(-15.515 -35.807)" fill="#fff"/>
    </g>
  </g>
</svg>
