<svg xmlns="http://www.w3.org/2000/svg" width="66" height="46" viewBox="0 0 66 46"><rect width="66" height="46" rx="3" fill="#016fd0"/><g transform="translate(0 11)"><path d="M0,10.261V0H10.922l1.172,1.52L13.3,0H52.95V9.553a4.594,4.594,0,0,1-2.236.708H28.762L27.44,8.644v1.618H23.111V7.5a3.648,3.648,0,0,1-1.87.385H19.767v2.376H13.212l-1.17-1.552-1.188,1.552Z" transform="translate(12.821 13.529)" fill="#fff"/><path d="M0,5.712,2.463,0h4.26l1.4,3.2V0h5.295l.832,2.313L15.054,0H38.823V1.163A5.142,5.142,0,0,1,42.126,0l7.712.027,1.374,3.158V0h4.431l1.22,1.814V0h4.472V10.261H56.863l-1.169-1.82v1.82h-6.51l-.655-1.618h-1.75l-.644,1.618H41.72a4.375,4.375,0,0,1-2.9-1.139v1.139H32.166L30.845,8.644v1.618H6.092L5.437,8.644H3.693l-.65,1.618H0Z" transform="translate(0.066 0.084)" fill="#fff"/><path d="M2.162,7.684H0L3.322,0H5.841L9.159,7.682H6.949L6.34,6.144H2.776L2.163,7.683Zm2.389-5.9L3.461,4.477H5.638Z" transform="translate(0.079 1.349)" fill="#016fd0"/><path d="M0,7.683V0L3.074.011,4.861,4.965,6.606,0H9.655V7.683H7.724V2.022L5.677,7.683H3.984L1.931,2.022V7.683Z" transform="translate(9.467 1.347)" fill="#016fd0"/><path d="M0,7.683V0H6.3V1.719H1.951V3.033H6.2V4.65H1.951V6.015H6.3V7.683Z" transform="translate(20.443 1.347)" fill="#016fd0"/><path d="M1.931,7.684H0V0H4.3A2.5,2.5,0,0,1,7,2.493a2.359,2.359,0,0,1-2.119,2.36L7.417,7.682l-2.358,0L2.744,4.954H1.931v2.73Zm0-5.965V3.336H4.167a.868.868,0,0,0,.886-.809.888.888,0,0,0-.914-.808Z" transform="translate(27.862 1.349)" fill="#016fd0"/><path d="M1.972,7.683H0V0H1.972Z" transform="translate(35.647 1.347)" fill="#016fd0"/><path d="M3.735,7.683H3.309C1.25,7.683,0,6.069,0,3.873A3.529,3.529,0,0,1,3.837,0H5.971V1.82H3.759a1.852,1.852,0,0,0-1.8,2.072A1.886,1.886,0,0,0,4.04,6h.508Z" transform="translate(38.559 1.347)" fill="#016fd0"/><path d="M2.162,7.684H0L3.322,0H5.841L9.159,7.682H6.949L6.34,6.144H2.776L2.163,7.683Zm2.389-5.9L3.461,4.477H5.638Z" transform="translate(43.173 1.349)" fill="#016fd0"/><path d="M0,7.683V0H2.455L5.59,4.827V0H7.521V7.683H5.145L1.931,2.73V7.683Z" transform="translate(52.558 1.347)" fill="#016fd0"/><path d="M0,7.683V0H6.3V1.719H1.951V3.033H6.2V4.65H1.951V6.015H6.3V7.683Z" transform="translate(14.142 14.793)" fill="#016fd0"/><path d="M0,7.683V0H6.3V1.719H1.951V3.033H6.179V4.65H1.951V6.015H6.3V7.683Z" transform="translate(45.017 14.793)" fill="#016fd0"/><path d="M.073,7.683,3.141,3.889,0,0H2.433L4.3,2.4,6.18,0H8.518l-3.1,3.842L8.492,7.683H6.059L4.243,5.317,2.471,7.683Z" transform="translate(20.614 14.793)" fill="#016fd0"/><path d="M1.982,7.683H0V0H4.265A2.54,2.54,0,0,1,7.038,2.584c0,1.649-1.159,2.673-3.024,2.673H1.982V7.682Zm0-5.945V3.506H4.116a.894.894,0,0,0,.959-.885.871.871,0,0,0-.953-.884Z" transform="translate(29.336 14.794)" fill="#016fd0"/><path d="M1.931,7.684H0V0H4.3A2.5,2.5,0,0,1,7,2.493a2.359,2.359,0,0,1-2.119,2.36L7.417,7.682l-2.358,0L2.744,4.954H1.931v2.73Zm0-5.965V3.336H4.167a.868.868,0,0,0,.886-.809.888.888,0,0,0-.914-.808Z" transform="translate(37.212 14.793)" fill="#016fd0"/><path d="M.245,7.683V6.015H4.11c.572,0,.819-.307.819-.644s-.247-.65-.819-.65H2.363A2.154,2.154,0,0,1,0,2.42C0,1.188.774,0,3.03,0H6.79L5.977,1.729H2.725c-.622,0-.813.324-.813.634a.672.672,0,0,0,.711.67H4.453A2.114,2.114,0,0,1,6.879,5.238,2.31,2.31,0,0,1,4.361,7.683Z" transform="translate(51.968 14.793)" fill="#016fd0"/><path d="M.245,7.683V6.015H4.11c.572,0,.819-.307.819-.644s-.247-.65-.819-.65H2.363A2.154,2.154,0,0,1,0,2.42C0,1.188.774,0,3.03,0H6.79L5.977,1.729H2.725c-.622,0-.813.324-.813.634a.672.672,0,0,0,.711.67H4.453A2.114,2.114,0,0,1,6.879,5.238,2.31,2.31,0,0,1,4.361,7.683Z" transform="translate(59.055 14.793)" fill="#016fd0"/></g></svg>