<svg xmlns="http://www.w3.org/2000/svg" width="66" height="46" viewBox="0 0 66 46">
  <g id="cabal" transform="translate(357 -145)">
    <g id="sodexo" transform="translate(-82 25)">
      <g id="Google_Pay" data-name="Google Pay" transform="translate(-275 120)">
        <rect id="Rectangle_Copy_15" data-name="Rectangle Copy 15" width="66" height="46" rx="3" fill="#00649d"/>
      </g>
    </g>
    <g id="Group-18" transform="translate(-349 161.95)">
      <path id="Fill-1" d="M27.127,3.333a8.688,8.688,0,0,0,.008,2.047c.574,0,1.154.022,1.731-.008a.605.605,0,0,0,.582-.634c.018-.225.01-.453.007-.679-.006-.483-.181-.676-.661-.735a1.7,1.7,0,0,0-.206-.009c-.394,0-.788,0-1.182,0-.1,0-.191.012-.279.018Zm-.033,5.421c.673,0,1.3,0,1.932,0a.954.954,0,0,0,.231-.049.541.541,0,0,0,.454-.484A7.657,7.657,0,0,0,29.7,7.134a.529.529,0,0,0-.432-.47,1.525,1.525,0,0,0-.378-.049c-.5-.006-1,0-1.507,0-.094,0-.188.016-.291.026Zm3.084-2.88c.106.038.151.053.2.07a1.379,1.379,0,0,1,.97,1.4c0,.3,0,.591,0,.887a1.579,1.579,0,0,1-1.11,1.576,2.935,2.935,0,0,1-.892.18c-1.232.022-2.464.012-3.7.013a1.027,1.027,0,0,1-.142-.019c-.077-.241-.082-7.613,0-7.907h.281c1.015,0,2.031-.015,3.045.008a4.646,4.646,0,0,1,1.162.171,1.374,1.374,0,0,1,1.055,1.4c.01.315,0,.631.005.946a1.188,1.188,0,0,1-.679,1.153c-.05.026-.1.059-.2.122Z" transform="translate(4.679 0.372)" fill="#fff" fill-rule="evenodd"/>
      <g id="Group-5" transform="translate(7.204 0.05)">
        <path id="Fill-3" d="M.078.021C.3.23.5.423.7.621q1.93,1.9,3.858,3.8c.429.422.866.835,1.291,1.26a.828.828,0,0,1,.01,1.3Q4.086,8.734,2.3,10.479q-.982.964-1.961,1.93c-.076.074-.154.146-.268.254C.055,12.542.039,12.47.039,12.4c0-.9,0-1.8,0-2.693a.53.53,0,0,1,.181-.412q1.2-1.181,2.4-2.371c.056-.056.113-.11.167-.168a.559.559,0,0,0,0-.841C2.35,5.47,1.906,5.036,1.464,4.6S.592,3.742.163,3.306a.408.408,0,0,1-.119-.251C.037,2.079.04,1.1.042.126a.443.443,0,0,1,.036-.1" transform="translate(-0.035 -0.021)" fill="#fff" fill-rule="evenodd"/>
      </g>
      <g id="Group-8" transform="translate(0 0.051)">
        <path id="Fill-6" d="M6.118.054c0,.076.013.152.013.229,0,.888,0,1.775,0,2.663a.553.553,0,0,1-.186.438q-1.261,1.228-2.5,2.473a.585.585,0,0,0,.013.966c.818.813,1.636,1.627,2.462,2.433a.648.648,0,0,1,.217.517c-.012.848,0,1.7,0,2.544v.341c-.1-.079-.167-.119-.219-.171q-1.172-1.149-2.342-2.3Q1.966,8.61.361,7.036A.857.857,0,0,1,.342,5.651Q2.958,3.08,5.581.516c.161-.158.31-.329.465-.494l.072.032" transform="translate(0 -0.022)" fill="#fff" fill-rule="evenodd"/>
      </g>
      <path id="Fill-9" d="M23.423,7.036,22.28,3.43l-.069.007L21.1,7.036ZM23.379,2.1l2.652,7.838a6.248,6.248,0,0,1-1.658.041c-.035-.093-.081-.2-.117-.307-.121-.365-.245-.729-.355-1.1a.268.268,0,0,0-.3-.217c-.9,0-1.8.006-2.693,0a.284.284,0,0,0-.312.24c-.145.46-.306.915-.465,1.385H18.479a2,2,0,0,1,.048-.231q1.178-3.487,2.36-6.973a.911.911,0,0,1,1-.7c.454,0,.907,0,1.361,0a1.136,1.136,0,0,1,.131.021Z" transform="translate(3.398 0.372)" fill="#fff" fill-rule="evenodd"/>
      <path id="Fill-11" d="M34.571,3.437l-.074.006L33.379,7.056c.8,0,1.546.008,2.337,0L34.571,3.437m-2.15,6.55H30.76c.025-.1.037-.188.064-.268q1.145-3.389,2.294-6.777a1.217,1.217,0,0,1,1.211-.865c.433-.005.866,0,1.329,0L38.34,10H37.9c-.335,0-.671-.007-1.006,0a.275.275,0,0,1-.32-.225c-.11-.378-.24-.751-.363-1.125-.095-.29-.1-.293-.389-.294q-1.287,0-2.575,0c-.284,0-.286,0-.377.271-.151.447-.3.894-.453,1.355" transform="translate(5.657 0.372)" fill="#fff" fill-rule="evenodd"/>
      <path id="Fill-13" d="M18.747,3.217c-.148.007-.254.015-.36.016-.651,0-1.3-.009-1.952.006a3.063,3.063,0,0,0-.7.108.8.8,0,0,0-.6.66,2.3,2.3,0,0,0-.049.439q-.006,1.509,0,3.017a1.918,1.918,0,0,0,.025.323.909.909,0,0,0,.83.831,5.027,5.027,0,0,0,.705.058c.394.009.789,0,1.183,0a.763.763,0,0,1,.819.811c.005.165,0,.331,0,.511a2.473,2.473,0,0,1-.262.031c-.7,0-1.4.01-2.1,0a4.5,4.5,0,0,1-1.339-.211,1.95,1.95,0,0,1-1.462-1.986c-.008-1.213,0-2.426,0-3.638a2.019,2.019,0,0,1,1.8-2.2,7.484,7.484,0,0,1,1.143-.118c.492-.019.986-.008,1.479,0a.783.783,0,0,1,.84.828c0,.157,0,.313,0,.512" transform="translate(2.479 0.335)" fill="#fff" fill-rule="evenodd"/>
      <g id="Group-17" transform="translate(44.558 2.33)">
        <path id="Fill-15" d="M.052,8.044c0-.1-.013-.2-.013-.31,0-2.208,0-4.416,0-6.623a1.535,1.535,0,0,1,.124-.6A.777.777,0,0,1,.848.058c.243-.021.489,0,.768,0,.011.148.029.281.029.414q0,2.927,0,5.855c0,.135.013.27.022.428.14.009.255.022.37.023q1.331,0,2.661,0c.089,0,.177,0,.266.005a.152.152,0,0,1,.166.165c0,.363,0,.726,0,1.08-.245.083-4.746.1-5.081.019" transform="translate(-0.037 -0.048)" fill="#fff" fill-rule="evenodd"/>
      </g>
    </g>
  </g>
</svg>
