<svg xmlns="http://www.w3.org/2000/svg" xmlns:xlink="http://www.w3.org/1999/xlink" width="66" height="46" viewBox="0 0 66 46"><defs><linearGradient id="a" x1="0.708" y1="1" x2="0.325" gradientUnits="objectBoundingBox"><stop offset="0" stop-color="#009be0"/><stop offset="1" stop-color="#006ba8"/></linearGradient></defs><g fill="#fff" stroke="#e6e7e8" stroke-miterlimit="10" stroke-width="1"><rect width="66" height="46" rx="3" stroke="none"/><rect x="0.5" y="0.5" width="65" height="45" rx="2.5" fill="none"/></g><g transform="translate(18 11)"><path d="M17.552,23.952c6.487.031,12.409-5.339,12.409-11.872A12.171,12.171,0,0,0,17.552,0H11.969A11.76,11.76,0,0,0,0,12.08,11.944,11.944,0,0,0,11.969,23.952Z" fill="url(#a)"/><path d="M10.862,21.929a10.744,10.744,0,0,1-7.68-3.212,11.035,11.035,0,0,1,0-15.5,10.789,10.789,0,0,1,15.361,0,11.035,11.035,0,0,1,0,15.5A10.746,10.746,0,0,1,10.862,21.929Zm2.463-17.45V17.452a6.917,6.917,0,0,0,4.424-6.487A7,7,0,0,0,13.325,4.478Zm-4.928,0a6.967,6.967,0,0,0,0,12.97Z" transform="translate(1.13 0.998)" fill="#f4f6f7"/></g></svg>