<svg xmlns="http://www.w3.org/2000/svg" width="66" height="46" viewBox="0 0 66 46"><g transform="translate(481 -846)"><g transform="translate(-481 846)"><g fill="#fff" stroke="#e6e7e8" stroke-miterlimit="10" stroke-width="1"><rect width="66" height="46" rx="3" stroke="none"/><rect x="0.5" y="0.5" width="65" height="45" rx="2.5" fill="none"/></g></g><g transform="translate(-540.5 687.443)"><path d="M87.65,191.548l-20.15.007v-.048c0-.027.032-.2.071-.384s.1-.478.136-.653.1-.471.134-.658l.142-.7c.04-.195.1-.5.138-.683s.1-.477.135-.658.1-.494.143-.7l.138-.683c.035-.174.091-.443.124-.6s.075-.363.094-.463.078-.4.133-.658.115-.558.134-.659.08-.4.135-.658.115-.558.134-.658.08-.4.135-.659.115-.552.133-.646.066-.335.107-.536.12-.58.174-.841.147-.717.207-1.012.13-.646.158-.78l.11-.536c.033-.161.093-.452.133-.646s.106-.513.146-.707.1-.5.137-.671.1-.465.134-.646.1-.5.146-.707.113-.526.157-.707.107-.4.139-.488a4.456,4.456,0,0,1,.2-.42l.139-.261.126-.165c.069-.091.193-.235.275-.319s.221-.212.308-.283.213-.167.28-.213.2-.127.293-.18.226-.121.293-.153.2-.089.3-.128.293-.1.427-.145.386-.1.56-.137.448-.08.61-.1l.294-.04,20.162-.008,20.162-.008v.048c0,.027-.032.2-.072.384s-.106.5-.147.7-.1.492-.134.646-.093.451-.136.659-.108.526-.145.707-.1.477-.134.658-.1.477-.135.659-.1.466-.13.634-.1.47-.136.671-.107.52-.147.707-.1.479-.134.646l-.136.671c-.041.2-.107.52-.146.707s-.1.473-.131.634l-.136.671c-.042.208-.1.51-.137.671s-.092.446-.131.634-.106.512-.148.72-.1.5-.135.658-.091.445-.132.646-.106.52-.145.707-.1.484-.135.659l-.137.671-.145.707-.133.646c-.033.161-.094.457-.134.658s-.107.518-.148.7l-.073.339-.087.234c-.048.129-.12.3-.161.381s-.122.222-.182.315-.144.212-.186.265-.169.189-.282.3l-.206.206-.2.141c-.109.077-.226.156-.261.175s-.166.086-.291.149-.3.143-.4.178-.273.095-.4.132-.269.075-.309.083l-.31.064c-.131.028-.394.069-.585.092l-.348.042-20.15.007Zm-7.169-5.212h.524l.015-.039a.391.391,0,0,0,.015-.111c0-.04.017-.184.038-.321s.071-.452.11-.7.1-.621.131-.829.073-.474.089-.591a.856.856,0,0,1,.044-.213.416.416,0,0,1,.075.115l.061.115.135.136.135.136.166.067.166.067.2.026.2.026.252-.015.252-.015.273-.071.273-.071.146-.067a2.977,2.977,0,0,0,.317-.178l.171-.111.159-.159a3.662,3.662,0,0,0,.274-.312,1.386,1.386,0,0,0,.115-.166.705.705,0,0,1,.069-.116,2.737,2.737,0,0,0,.173-.346c.057-.134.146-.376.2-.536l.094-.293.049-.253c.027-.139.061-.37.077-.512l.028-.259-.016-.22-.016-.22-.051-.219-.051-.22-.082-.164-.082-.164-.159-.169-.159-.169-.188-.1-.188-.1-.207-.05-.207-.05-.207-.015-.207-.015-.231.026-.231.027-.188.048-.188.048-.164.076a2.971,2.971,0,0,0-.291.157,1.471,1.471,0,0,0-.161.115.771.771,0,0,1-.1.075l-.064.042.045-.214c.025-.118.045-.228.046-.245V179h-.894l-.078.494c-.043.272-.111.691-.151.933s-.1.6-.134.8-.094.558-.134.793-.106.608-.147.829l-.132.719-.135.732c-.042.228-.109.59-.149.8s-.106.555-.146.756-.079.391-.086.421l-.013.055Zm2.257-2.82-.2.012-.133-.023-.133-.023-.135-.062L82,183.358l-.094-.09-.094-.09-.055-.122a1.728,1.728,0,0,1-.086-.253l-.031-.131.012-.21.012-.21.063-.329c.034-.181.1-.521.138-.756s.1-.579.139-.764l.064-.338.14-.116a2.268,2.268,0,0,1,.271-.191l.131-.074.171-.053.171-.053.219-.013.22-.013.179.038.179.038.126.058.126.058.106.106.106.106.057.113a1.648,1.648,0,0,1,.1.269l.041.157-.013.463-.012.463-.063.274c-.034.151-.1.381-.146.512l-.083.238-.1.193a3.36,3.36,0,0,1-.192.319,1.363,1.363,0,0,1-.175.2c-.047.04-.126.1-.175.14l-.089.067-.207.07-.207.07-.2.012Zm5.064.67.268,0,.268-.025c.147-.013.389-.041.536-.062s.4-.067.566-.1l.3-.066.015-.11c.008-.06.042-.24.074-.4l.06-.29-.013-.013-.013-.013-.091.044c-.05.024-.206.082-.347.128l-.256.084-.268.052-.269.052h-.853l-.146-.047a2.314,2.314,0,0,1-.263-.1l-.117-.058-.1-.087-.1-.087-.075-.131-.075-.131-.047-.165-.047-.165v-.61l.042-.272.042-.272.367-.017.367-.017,1.357.009,1.357.009.041-.174c.022-.1.057-.293.077-.439l.036-.265V180l-.039-.167-.039-.167-.064-.11a1.546,1.546,0,0,0-.138-.2,1.087,1.087,0,0,0-.161-.147,2.381,2.381,0,0,0-.209-.126l-.122-.065-.213-.051-.213-.051-.263-.025-.262-.025-.244.016-.244.016-.293.056-.293.056-.183.073a3.365,3.365,0,0,0-.341.163,2.387,2.387,0,0,0-.268.179c-.06.049-.165.144-.232.211a2.211,2.211,0,0,0-.221.269,3.53,3.53,0,0,0-.185.317c-.048.094-.11.226-.138.293s-.079.2-.114.3-.089.293-.12.427-.075.355-.1.491l-.039.247v.726l.037.158a2.989,2.989,0,0,0,.087.293,1.993,1.993,0,0,0,.112.244,1.353,1.353,0,0,0,.163.216,2.085,2.085,0,0,0,.222.2,1.757,1.757,0,0,0,.265.156l.143.065.2.048c.11.027.276.058.369.07s.29.023.437.025Zm.459-3.435c-.675,0-1.228,0-1.228-.011s.029-.091.064-.189.1-.244.137-.324l.073-.146.161-.16.161-.16.159-.076a1.821,1.821,0,0,1,.256-.1,2.608,2.608,0,0,1,.341-.041l.244-.016.187.024.187.024.136.062.136.062.075.081a.864.864,0,0,1,.109.145l.034.064.023.143.022.143-.026.238-.026.238Zm7.3,3.436.268,0,.3-.036c.168-.02.391-.053.5-.073s.275-.061.378-.09a1.319,1.319,0,0,0,.207-.07,1.169,1.169,0,0,0,.064-.246c.025-.126.056-.295.069-.375a.66.66,0,0,0,.015-.156c0-.005-.023,0-.04.015a2.127,2.127,0,0,1-.266.112l-.235.087-.334.065-.334.065-.284-.01-.284-.01-.161-.056-.162-.056-.125-.109-.125-.109-.083-.151-.083-.151-.039-.2-.04-.2v-.523l.048-.317.048-.317.051-.171c.028-.094.059-.2.07-.244a2.627,2.627,0,0,1,.1-.256c.044-.1.123-.256.174-.345l.094-.163.116-.12.116-.12.123-.076.123-.076.158-.049a2.944,2.944,0,0,1,.341-.077l.183-.028.268.013.268.013.317.063.317.064.129.048c.071.026.132.048.136.048a1.6,1.6,0,0,0,.038-.2c.017-.111.047-.293.067-.4a1.007,1.007,0,0,0,.026-.214,1.359,1.359,0,0,0-.212-.034c-.111-.013-.411-.035-.668-.05l-.467-.027-.329.025-.329.025-.244.051-.244.051-.157.063a2.267,2.267,0,0,0-.281.139c-.068.042-.155.1-.193.125a3.366,3.366,0,0,0-.256.233l-.187.184-.1.153a3.9,3.9,0,0,0-.22.389l-.116.237-.089.256c-.049.141-.117.371-.152.512l-.063.256-.023.232-.023.232v.61l.023.177.023.177.073.182.073.183.084.132.084.132.134.132.134.132.142.075.142.075.186.052a3.3,3.3,0,0,0,.329.073,4.018,4.018,0,0,0,.411.024Zm4.012-.009.329-.009.207-.053.207-.053.134-.063a2.577,2.577,0,0,0,.268-.153,2.071,2.071,0,0,0,.254-.208,2.793,2.793,0,0,0,.217-.247.639.639,0,0,1,.1-.122,2.111,2.111,0,0,1-.027.251,3.658,3.658,0,0,0-.035.4v.152h.9l.014-.347.014-.348.064-.451c.035-.248.092-.616.126-.817s.094-.541.132-.756.1-.549.135-.744l.066-.354,0-.305,0-.305-.069-.141-.069-.141-.094-.09-.094-.09-.154-.078-.154-.078-.229-.051-.229-.051-.316-.024-.315-.024-.406.025c-.224.014-.538.041-.7.061l-.293.035h-.4l-.029.14c-.016.077-.06.26-.1.407a2.2,2.2,0,0,0-.062.275,1.62,1.62,0,0,0,.237-.054c.126-.034.394-.09.595-.124l.366-.062.329-.014.329-.013.212.037.212.037.142.07.142.07.079.118.079.118v.373l-.042.2-.042.2-.877,0-.878,0-.287.079a3.282,3.282,0,0,0-.389.128.607.607,0,0,1-.124.049,1.39,1.39,0,0,0-.209.116l-.186.116-.147.146a2.287,2.287,0,0,0-.229.268,2.314,2.314,0,0,0-.163.311l-.081.189L98,182.4l-.037.213v.447l.036.186.036.186.066.121a1.515,1.515,0,0,0,.148.217l.082.1.146.089.146.089.167.047c.092.026.232.057.311.07l.144.023.329-.009Zm.3-.682-.2.01-.129-.033a1.381,1.381,0,0,1-.24-.09l-.11-.057-.06-.072a1.153,1.153,0,0,1-.112-.172l-.052-.1-.01-.234-.01-.234.041-.142a2.349,2.349,0,0,1,.119-.3l.077-.159.148-.147.148-.147.157-.076.157-.076.2-.046.2-.046h1.219l.039.016.038.016-.032.191c-.018.105-.061.3-.095.423s-.095.315-.134.416-.072.191-.072.2a1.308,1.308,0,0,1-.089.164l-.089.15-.146.145a1,1,0,0,1-.166.145.456.456,0,0,0-.11.061l-.09.061-.2.063-.2.063-.2.01Zm7.938.691.232,0,.22-.036c.121-.02.274-.051.341-.07a1.8,1.8,0,0,0,.268-.109l.146-.075.126-.111.126-.111.133-.177a2.036,2.036,0,0,0,.147-.213l.014-.036-.012.122c-.007.067-.022.177-.034.244s-.029.2-.038.287l-.016.165h.957v-.329l.073-.622c.04-.342.1-.8.132-1.012s.082-.522.111-.683.079-.452.113-.646.094-.535.134-.756.1-.573.144-.78l.133-.719c.035-.188.1-.517.138-.732s.1-.516.134-.671.059-.289.059-.3V176.8h-1.044l-.015.153c-.008.084-.048.361-.089.616s-.106.661-.146.9-.079.475-.086.52l-.013.081-.041-.017c-.023-.01-.145-.044-.273-.076l-.232-.058-.317-.025-.317-.025-.268.025-.268.025-.244.062-.244.062-.232.113-.232.113-.171.126-.171.126-.147.158a3.579,3.579,0,0,0-.26.32l-.113.161-.133.276c-.073.152-.162.353-.2.447s-.1.3-.139.463l-.075.292-.037.379-.037.379.028.3.027.3.033.11c.018.06.056.168.084.239l.052.129.094.127.094.127.107.088.107.088.146.073a2.01,2.01,0,0,0,.3.115,2.751,2.751,0,0,0,.3.062c.083.011.255.021.383.023Zm.416-.692-.184.01-.124-.022a1.351,1.351,0,0,1-.243-.073l-.119-.051-.1-.082-.1-.082-.074-.142-.074-.142-.034-.158-.034-.159,0-.317,0-.317.039-.28.039-.28.061-.2a2.006,2.006,0,0,0,.061-.225,1.172,1.172,0,0,1,.074-.2c.04-.091.108-.231.15-.311a2.55,2.55,0,0,1,.175-.279,2.375,2.375,0,0,1,.214-.244,1.626,1.626,0,0,1,.225-.179l.109-.067.192-.066.192-.066h.8l.232.064c.127.035.263.076.3.091l.069.027-.013.067c-.007.037-.036.2-.064.36s-.083.468-.123.683-.1.538-.135.719-.085.412-.112.512-.064.24-.084.31a2.012,2.012,0,0,1-.1.268,2.113,2.113,0,0,1-.144.251,1.39,1.39,0,0,1-.158.186,2.048,2.048,0,0,1-.216.165l-.134.089-.194.061-.194.062-.184.01Zm-35.892.573h.592l.043-.262c.023-.144.069-.421.1-.616l.134-.8c.041-.248.1-.616.138-.817s.089-.513.121-.694a3.029,3.029,0,0,1,.073-.341l.014-.014h3.187l.018.018.018.018-.028.141c-.015.078-.06.317-.1.531l-.149.8c-.042.228-.1.552-.135.719s-.1.519-.145.78-.086.489-.086.506v.03h1.19l.026-.152c.015-.084.038-.235.052-.335s.048-.315.075-.476.082-.479.121-.707.105-.618.146-.866.1-.61.135-.8.093-.524.132-.732.1-.559.146-.78.1-.556.136-.744.1-.528.137-.756.094-.494.117-.591l.041-.177h-1.2l-.016.116c-.009.064-.038.242-.065.4s-.075.429-.107.61-.092.527-.132.768-.091.561-.114.71l-.041.271-.884.018-.884.018-.741-.018c-.407-.01-.743-.02-.746-.022a2.069,2.069,0,0,1,.031-.211c.02-.114.057-.311.083-.438s.075-.38.109-.561.073-.406.086-.5.041-.25.061-.348.059-.3.086-.455.056-.3.064-.317l.015-.039h-1.2l-.038.213c-.021.117-.049.285-.062.372s-.058.367-.1.622-.1.633-.135.841l-.134.841c-.041.255-.107.65-.149.878s-.1.552-.133.719l-.134.707c-.042.221-.1.534-.137.7s-.07.348-.081.415-.049.26-.084.43-.063.326-.063.347v.04Zm6.56,0h.525l.015-.039a.46.46,0,0,0,.015-.124c0-.047.033-.29.073-.541s.107-.659.148-.907.1-.61.135-.8.092-.518.131-.719.1-.514.133-.7.1-.526.149-.766.093-.446.1-.458l.013-.021L79.8,179l-.53.007-.044.317c-.024.174-.077.52-.118.768s-.1.627-.137.841-.095.56-.134.768l-.133.707c-.034.181-.1.5-.136.707s-.1.482-.121.61-.054.256-.062.287l-.015.055Zm12.269,0h.521l.016-.22c.009-.121.038-.365.065-.543s.084-.531.125-.786.118-.679.17-.943.112-.526.132-.582a.67.67,0,0,0,.036-.136,1.292,1.292,0,0,1,.087-.223,3.032,3.032,0,0,1,.2-.354l.111-.165.149-.138.149-.138.183-.088.183-.088h.561l.138.041c.076.023.144.041.152.041s.015-.026.015-.058.027-.192.061-.357.061-.306.061-.315a.653.653,0,0,0-.177-.069,2.233,2.233,0,0,0-.3-.069l-.122-.015-.159.028a2.061,2.061,0,0,0-.288.076,1.636,1.636,0,0,0-.261.132,1.885,1.885,0,0,0-.251.2,2.88,2.88,0,0,0-.244.287l-.16.22-.035.049.021-.1c.012-.054.044-.229.072-.39s.057-.312.064-.335l.013-.043h-.93v.059c0,.032-.027.227-.061.433s-.089.55-.123.764-.094.588-.134.829-.1.587-.134.768-.095.5-.135.707-.106.548-.147.756-.09.453-.109.546-.035.177-.035.189v.021Zm12.36,0h.532v-.326l.061-.4c.034-.222.089-.574.124-.782s.077-.471.1-.585.066-.361.106-.549.09-.391.112-.451a.769.769,0,0,0,.039-.141,1.648,1.648,0,0,1,.1-.243l.1-.213.133-.176.133-.176.145-.109a2.117,2.117,0,0,1,.285-.177l.14-.068.3,0,.3,0,.12.039.12.038.02-.012.02-.013v-.078a3.218,3.218,0,0,1,.058-.354l.057-.276-.064-.025c-.035-.014-.119-.042-.186-.064l-.122-.038h-.439l-.179.063-.179.063-.134.081-.134.081-.175.183-.175.183-.094.142a.681.681,0,0,1-.1.134s.024-.167.062-.361.07-.378.07-.409V179h-.9v.016c0,.008-.023.165-.05.347s-.083.535-.123.783-.106.649-.146.89-.1.587-.135.768-.094.5-.134.707-.1.543-.145.744l-.118.591-.045.226Zm-23.6-5.951h.148l.118-.04.118-.04.1-.106.1-.106.055-.141.055-.141,0-.207,0-.207-.049-.081-.049-.081-.085-.053-.085-.053H80l-.125.056-.125.056-.073.078-.072.078-.057.134-.057.134-.011.209-.011.209.053.1.053.1.1.046.1.046Z" fill="#b3131b"/></g></g></svg>