<svg id="JCB" xmlns="http://www.w3.org/2000/svg" xmlns:xlink="http://www.w3.org/1999/xlink" width="66" height="46" viewBox="0 0 66 46">
  <defs>
    <linearGradient id="linear-gradient" x1="1" y1="0.44" x2="0.034" y2="0.44" gradientUnits="objectBoundingBox">
      <stop offset="0" stop-color="#43c311"/>
      <stop offset="1" stop-color="#288c00"/>
    </linearGradient>
    <linearGradient id="linear-gradient-2" x1="0.003" y1="0.498" x2="1.013" y2="0.498" gradientUnits="objectBoundingBox">
      <stop offset="0" stop-color="#21469e"/>
      <stop offset="1" stop-color="#1e81eb"/>
    </linearGradient>
    <linearGradient id="linear-gradient-3" x1="1" y1="0.5" x2="0" y2="0.5" gradientUnits="objectBoundingBox">
      <stop offset="0" stop-color="#f42d3e"/>
      <stop offset="1" stop-color="#9c0017"/>
    </linearGradient>
    <clipPath id="clip-path">
      <path id="Clip_2" data-name="Clip 2" d="M.043,23C.02,23,.008,23,0,22.993a.156.156,0,0,1,0-.07c0-.009,0-.016,0-.019V15.248c0-.007,0-.014,0-.02s0-.033.013-.042a.112.112,0,0,1,.055-.009c.027,0,.057,0,.084.006l.05,0H5.591a4.532,4.532,0,0,0,.576-.027A2.4,2.4,0,0,0,7.6,14.5a1.768,1.768,0,0,0,.336-1.938,2.041,2.041,0,0,0-1.327-1.029,3.127,3.127,0,0,0-.544-.1H6.044a.15.15,0,0,1-.067-.008c-.009-.009-.012-.016-.011-.023s.018-.018.031-.023l.009,0a.252.252,0,0,1,.081-.017l.044-.006c.075-.017.138-.033.2-.05A1.8,1.8,0,0,0,7.6,10.083a1.7,1.7,0,0,0-.554-1.768,2.419,2.419,0,0,0-1.294-.47c-.276-.026-.553-.029-.763-.029l-.319,0-.318,0H.076c-.04,0-.059,0-.067-.01S0,7.79,0,7.767s0-.023,0-.038V4.085a5.277,5.277,0,0,1,.073-1A3.88,3.88,0,0,1,.965,1.267,3.646,3.646,0,0,1,3.293.034,6.179,6.179,0,0,1,3.983,0h.061c.136,0,.272,0,.407.005s.3.005.448.005H9.126V19.16a3.924,3.924,0,0,1-1.488,3.074A3.723,3.723,0,0,1,5.3,23H.135l-.03,0C.086,23,.062,23,.043,23Zm1.85-8.962c-.062,0-.1-.009-.1-.026a.227.227,0,0,1,0-.09c0-.014,0-.027,0-.036v-1.9H3.9a.991.991,0,0,1,.708.258,1.061,1.061,0,0,1,.307.925,1.016,1.016,0,0,1-.458.719,1.188,1.188,0,0,1-.654.141H2.039l-.051,0C1.958,14.035,1.924,14.038,1.892,14.038ZM1.844,10.8A.081.081,0,0,1,1.8,10.79c-.022-.015-.016-.1-.012-.155,0-.017,0-.032,0-.041V9.1c0-.008,0-.02,0-.032a.2.2,0,0,1,0-.082c.008-.018.014-.022.027-.022H3.675c.053,0,.122,0,.192.006a.925.925,0,0,1,.659.336.893.893,0,0,1,.172.361.936.936,0,0,1-.226.844.986.986,0,0,1-.714.28l-.215,0H1.958l-.04,0C1.895,10.8,1.867,10.8,1.844,10.8Z" fill="url(#linear-gradient)"/>
    </clipPath>
    <clipPath id="clip-path-2">
      <path id="Clip_5" data-name="Clip 5" d="M3.135.051A3.679,3.679,0,0,0,1.649.658h0A3.9,3.9,0,0,0,0,3.842H0c0,.373,0,.746,0,1.118H0v8.28c0,.07,0,.056.077.094h0q.13.063.262.123h0a7.642,7.642,0,0,0,2.2.654h0a3.161,3.161,0,0,0,1.649-.136h0a1.7,1.7,0,0,0,.914-.939h0a2.314,2.314,0,0,0,.14-.861h0V7.937c0-.023-.013-.1,0-.116h0c.016-.025.144-.009.181-.009H8.461v3.293c0,.379,0,.758,0,1.136h0a3.237,3.237,0,0,1-.24,1.29h0a2.5,2.5,0,0,1-.805,1.005h0a5.372,5.372,0,0,1-2.983.842h0a14.789,14.789,0,0,1-2.189-.07h0A13.649,13.649,0,0,1,0,14.917H0v8c0,.011-.008.067,0,.076H0c.015.017.154,0,.181,0H4.5a7.586,7.586,0,0,0,1.91-.116h0a3.8,3.8,0,0,0,2.481-2.112h0a4.321,4.321,0,0,0,.343-1.8h0V0H3.978a5.109,5.109,0,0,0-.842.051" fill="url(#linear-gradient-2)"/>
    </clipPath>
    <clipPath id="clip-path-3">
      <path id="Clip_8" data-name="Clip 8" d="M3.466.009A3.591,3.591,0,0,0,2.3.286h0A3.782,3.782,0,0,0,.4,2.095h0a3.936,3.936,0,0,0-.4,1.721h0c0,.1,0,.193,0,.29h0v4.7l.076-.066h0c.092-.076.187-.148.285-.215h0a5.411,5.411,0,0,1,2.04-.788h0a10.443,10.443,0,0,1,1.768-.172h0a13.379,13.379,0,0,1,1.746.074h0a16.753,16.753,0,0,1,1.76.3h0l.214.049h0c.038.009.184.021.2.051h0c.015.022,0,.107,0,.132h0V9.651q-.124-.064-.249-.126h0a7.184,7.184,0,0,0-1.991-.65h0A3.731,3.731,0,0,0,3.074,9.3h0a2.673,2.673,0,0,0-.962,2.47h0A2.4,2.4,0,0,0,3.5,13.824h0a4.339,4.339,0,0,0,2.6.138h0a7.771,7.771,0,0,0,2-.728h0v1.479c0,.025.015.112,0,.133h0c-.02.029-.168.042-.2.05h0q-.222.052-.446.1h0a15.94,15.94,0,0,1-1.772.273h0a13.438,13.438,0,0,1-1.755.042h0a9.638,9.638,0,0,1-1.777-.22h0A4.8,4.8,0,0,1,.005,14.077h0v8.692c0,.018-.011.093,0,.107h0c.025.031.232.006.281.006h3.8c.535,0,1.079.029,1.612-.01h0a3.677,3.677,0,0,0,2.521-1.3h0a3.968,3.968,0,0,0,.912-2.588h0V0H4.153L3.82,0h0C3.7,0,3.584,0,3.466.009" fill="url(#linear-gradient-3)"/>
    </clipPath>
  </defs>
  <g id="Rectangle_Copy_22" data-name="Rectangle Copy 22" fill="#fff" stroke="#e6e7e8" stroke-miterlimit="10" stroke-width="1">
    <rect width="66" height="46" rx="3" stroke="none"/>
    <rect x="0.5" y="0.5" width="65" height="45" rx="2.5" fill="none"/>
  </g>
  <g id="Page_1_Copy_2" data-name="Page 1 Copy 2" transform="translate(18 12)">
    <g id="Group_3" data-name="Group 3" transform="translate(20.769)">
      <path id="Clip_2-2" data-name="Clip 2" d="M.043,23C.02,23,.008,23,0,22.993a.156.156,0,0,1,0-.07c0-.009,0-.016,0-.019V15.248c0-.007,0-.014,0-.02s0-.033.013-.042a.112.112,0,0,1,.055-.009c.027,0,.057,0,.084.006l.05,0H5.591a4.532,4.532,0,0,0,.576-.027A2.4,2.4,0,0,0,7.6,14.5a1.768,1.768,0,0,0,.336-1.938,2.041,2.041,0,0,0-1.327-1.029,3.127,3.127,0,0,0-.544-.1H6.044a.15.15,0,0,1-.067-.008c-.009-.009-.012-.016-.011-.023s.018-.018.031-.023l.009,0a.252.252,0,0,1,.081-.017l.044-.006c.075-.017.138-.033.2-.05A1.8,1.8,0,0,0,7.6,10.083a1.7,1.7,0,0,0-.554-1.768,2.419,2.419,0,0,0-1.294-.47c-.276-.026-.553-.029-.763-.029l-.319,0-.318,0H.076c-.04,0-.059,0-.067-.01S0,7.79,0,7.767s0-.023,0-.038V4.085a5.277,5.277,0,0,1,.073-1A3.88,3.88,0,0,1,.965,1.267,3.646,3.646,0,0,1,3.293.034,6.179,6.179,0,0,1,3.983,0h.061c.136,0,.272,0,.407.005s.3.005.448.005H9.126V19.16a3.924,3.924,0,0,1-1.488,3.074A3.723,3.723,0,0,1,5.3,23H.135l-.03,0C.086,23,.062,23,.043,23Zm1.85-8.962c-.062,0-.1-.009-.1-.026a.227.227,0,0,1,0-.09c0-.014,0-.027,0-.036v-1.9H3.9a.991.991,0,0,1,.708.258,1.061,1.061,0,0,1,.307.925,1.016,1.016,0,0,1-.458.719,1.188,1.188,0,0,1-.654.141H2.039l-.051,0C1.958,14.035,1.924,14.038,1.892,14.038ZM1.844,10.8A.081.081,0,0,1,1.8,10.79c-.022-.015-.016-.1-.012-.155,0-.017,0-.032,0-.041V9.1c0-.008,0-.02,0-.032a.2.2,0,0,1,0-.082c.008-.018.014-.022.027-.022H3.675c.053,0,.122,0,.192.006a.925.925,0,0,1,.659.336.893.893,0,0,1,.172.361.936.936,0,0,1-.226.844.986.986,0,0,1-.714.28l-.215,0H1.958l-.04,0C1.895,10.8,1.867,10.8,1.844,10.8Z" fill="url(#linear-gradient)"/>
    </g>
    <g id="Group_6" data-name="Group 6">
      <path id="Clip_5-2" data-name="Clip 5" d="M3.135.051A3.679,3.679,0,0,0,1.649.658h0A3.9,3.9,0,0,0,0,3.842H0c0,.373,0,.746,0,1.118H0v8.28c0,.07,0,.056.077.094h0q.13.063.262.123h0a7.642,7.642,0,0,0,2.2.654h0a3.161,3.161,0,0,0,1.649-.136h0a1.7,1.7,0,0,0,.914-.939h0a2.314,2.314,0,0,0,.14-.861h0V7.937c0-.023-.013-.1,0-.116h0c.016-.025.144-.009.181-.009H8.461v3.293c0,.379,0,.758,0,1.136h0a3.237,3.237,0,0,1-.24,1.29h0a2.5,2.5,0,0,1-.805,1.005h0a5.372,5.372,0,0,1-2.983.842h0a14.789,14.789,0,0,1-2.189-.07h0A13.649,13.649,0,0,1,0,14.917H0v8c0,.011-.008.067,0,.076H0c.015.017.154,0,.181,0H4.5a7.586,7.586,0,0,0,1.91-.116h0a3.8,3.8,0,0,0,2.481-2.112h0a4.321,4.321,0,0,0,.343-1.8h0V0H3.978a5.109,5.109,0,0,0-.842.051" fill="url(#linear-gradient-2)"/>
    </g>
    <g id="Group_9" data-name="Group 9" transform="translate(10.385)">
      <path id="Clip_8-2" data-name="Clip 8" d="M3.466.009A3.591,3.591,0,0,0,2.3.286h0A3.782,3.782,0,0,0,.4,2.095h0a3.936,3.936,0,0,0-.4,1.721h0c0,.1,0,.193,0,.29h0v4.7l.076-.066h0c.092-.076.187-.148.285-.215h0a5.411,5.411,0,0,1,2.04-.788h0a10.443,10.443,0,0,1,1.768-.172h0a13.379,13.379,0,0,1,1.746.074h0a16.753,16.753,0,0,1,1.76.3h0l.214.049h0c.038.009.184.021.2.051h0c.015.022,0,.107,0,.132h0V9.651q-.124-.064-.249-.126h0a7.184,7.184,0,0,0-1.991-.65h0A3.731,3.731,0,0,0,3.074,9.3h0a2.673,2.673,0,0,0-.962,2.47h0A2.4,2.4,0,0,0,3.5,13.824h0a4.339,4.339,0,0,0,2.6.138h0a7.771,7.771,0,0,0,2-.728h0v1.479c0,.025.015.112,0,.133h0c-.02.029-.168.042-.2.05h0q-.222.052-.446.1h0a15.94,15.94,0,0,1-1.772.273h0a13.438,13.438,0,0,1-1.755.042h0a9.638,9.638,0,0,1-1.777-.22h0A4.8,4.8,0,0,1,.005,14.077h0v8.692c0,.018-.011.093,0,.107h0c.025.031.232.006.281.006h3.8c.535,0,1.079.029,1.612-.01h0a3.677,3.677,0,0,0,2.521-1.3h0a3.968,3.968,0,0,0,.912-2.588h0V0H4.153L3.82,0h0C3.7,0,3.584,0,3.466.009" fill="url(#linear-gradient-3)"/>
    </g>
  </g>
</svg>
