<svg xmlns="http://www.w3.org/2000/svg" width="66" height="46" viewBox="0 0 66 46"><rect width="66" height="46" rx="3" fill="#262626"/><g transform="translate(13 11)"><rect width="10.678" height="19.387" transform="translate(14.732 2.973)" fill="#7673c0"/><path d="M15.083,12.327a12.355,12.355,0,0,1,4.661-9.692A12.114,12.114,0,0,0,3.238,3.965a12.422,12.422,0,0,0,0,16.728,12.114,12.114,0,0,0,16.506,1.329,12.355,12.355,0,0,1-4.661-9.7Z" transform="translate(0.331 0.337)" fill="#eb001b"/><path d="M.939.956h0V.238L.806.854H.715L.583.238V.949H.495V0H.62L.762.678.905,0h.122v.95L.94.956ZM.244.949H.159V.163H0V0H.4V.163H.244V.948Z" transform="translate(38.41 19.825)" fill="#00a1df"/><path d="M19.746,12.332a12.341,12.341,0,0,1-6.871,11.089A12.1,12.1,0,0,1,0,22.024,12.375,12.375,0,0,0,4.663,12.33,12.375,12.375,0,0,0,0,2.637a12.1,12.1,0,0,1,12.877-1.4A12.341,12.341,0,0,1,19.746,12.332Z" transform="translate(20.071 0.332)" fill="#00a1df"/></g></svg>