<svg xmlns="http://www.w3.org/2000/svg" width="66" height="46" viewBox="0 0 66 46">
  <g id="ticket" transform="translate(203 -122)">
    <g id="Google_Pay" data-name="Google Pay" transform="translate(-203 122)">
      <g id="Rectangle_Copy_15" data-name="Rectangle Copy 15" fill="#fff" stroke="#e6e7e8" stroke-miterlimit="10" stroke-width="1">
        <rect width="66" height="46" rx="3" stroke="none"/>
        <rect x="0.5" y="0.5" width="65" height="45" rx="2.5" fill="none"/>
      </g>
    </g>
    <g id="ticket-logo" transform="translate(-190.947 128.192)">
      <ellipse id="path821-9" cx="17.262" cy="17.264" rx="17.262" ry="17.264" transform="translate(3.95 0)" fill="#fff"/>
      <path id="Combined-Shape-2" d="M34.33,18.485H29.1a2.074,2.074,0,0,0,2.22,1.572,3.82,3.82,0,0,0,1.639-.37l-.145,1.559a5.34,5.34,0,0,1-1.982.33c-2.326,0-3.964-1.361-3.964-3.673a3.462,3.462,0,0,1,3.713-3.515c2.537,0,3.806,1.612,3.753,4.1Zm-9.461,2.96c-.106-.251-.264-.661-.4-1.07l-.3-1.018c-.159-.542-.37-.766-.885-.766h-.872v2.854H20.389V12.116h2.022v5.14h.225l1.916-2.735H26.8l-2.26,2.854h.119c.9,0,1.163.5,1.388,1.242l.383,1.282a9,9,0,0,0,.621,1.546ZM18.394,19.9a2.97,2.97,0,0,0,1.295-.3L19.5,21.273a3.662,3.662,0,0,1-1.533.317,3.451,3.451,0,0,1-3.687-3.621,3.417,3.417,0,0,1,3.673-3.581,4.681,4.681,0,0,1,2.061.449L19.438,16.4a2.322,2.322,0,0,0-1.176-.33,1.746,1.746,0,0,0-1.837,1.9A1.821,1.821,0,0,0,18.394,19.9ZM11.6,13.635h2.061v-1.52H11.6Zm0,7.81h2.061V14.521H11.6Zm23.165-3.74V13l2.061-.832v2.484h1.387L37.938,16.2H36.8v1.586a5.784,5.784,0,0,0,1.2,3.5A17.268,17.268,0,0,0,4.728,12.116h6.424l-.251,1.85H8.219v7.479H6.025V13.966H4.263a17.266,17.266,0,0,0,33.7,7.479H35.93a6.517,6.517,0,0,1-1.163-3.74Zm-4.123-1.89a1.589,1.589,0,0,0-1.6,1.321H32.15a1.426,1.426,0,0,0-1.506-1.321" fill="#d52b1e" fill-rule="evenodd"/>
    </g>
  </g>
</svg>
